<?xml version="1.0" standalone="no"?>
<!DOCTYPE svg PUBLIC "-//W3C//DTD SVG 20010904//EN"
 "http://www.w3.org/TR/2001/REC-SVG-20010904/DTD/svg10.dtd">
<svg version="1.0" xmlns="http://www.w3.org/2000/svg"
 width="800.000000pt" height="800.000000pt" viewBox="0 0 800.000000 800.000000"
 preserveAspectRatio="xMidYMid meet">
<metadata>
Created by potrace 1.14, written by Peter Selinger 2001-2017
</metadata>
<g transform="translate(0.000000,800.000000) scale(0.100000,-0.100000)"
fill="#000000" stroke="none">
<path d="M3118 5725 c-2 -2 -31 -6 -64 -9 -50 -5 -166 -27 -209 -40 -5 -1 -30
-8 -55 -15 -67 -19 -218 -92 -301 -146 -85 -54 -155 -112 -231 -190 l-54 -55
-38 50 c-86 113 -244 237 -382 300 -102 47 -106 48 -145 58 l-36 10 0 -270 1
-269 30 -22 c128 -88 205 -196 250 -346 12 -40 14 -81 10 -179 -3 -70 -6 -622
-7 -1227 l-2 -1100 393 0 c254 0 396 3 400 10 4 5 7 503 8 1105 1 602 4 1106
8 1120 23 97 91 214 159 278 75 68 207 132 275 132 16 0 17 26 17 400 0 293
-3 401 -12 404 -6 3 -13 3 -15 1z"/>
<path d="M4967 5724 c-1 -1 -29 -5 -62 -8 -240 -27 -510 -148 -706 -317 l-56
-48 -39 33 c-217 183 -502 311 -737 332 l-72 6 0 -401 c0 -393 1 -404 28 -401
1 0 29 -9 61 -20 165 -56 294 -204 342 -391 15 -57 17 -175 18 -1149 l1 -1085
397 0 398 0 1 1080 c0 594 3 1098 5 1119 12 100 77 225 159 307 58 59 182 123
265 138 66 11 179 8 239 -9 133 -36 256 -137 323 -265 70 -134 68 -100 68
-1297 l0 -1073 398 0 397 0 0 1130 c-1 622 -4 1155 -9 1185 -85 583 -555 1041
-1156 1126 -41 6 -258 12 -263 8z"/>
</g>
</svg>
